<svg viewBox="0 0 25 24" fill="none" xmlns="http://www.w3.org/2000/svg">
    <path fill-rule="evenodd" clip-rule="evenodd"
        d="M19.083 20.646a.997.997 0 01-.707-.293l-1.096-1.096-1.059 1.06a.999.999 0 11-1.414-1.415l1.058-1.06-1.094-1.094a1 1 0 011.415-1.414l1.094 1.094 1.06-1.06a1 1 0 011.414 1.414l-1.06 1.06 1.096 1.097a.999.999 0 01-.707 1.707zM11.429 3.25a4.88 4.88 0 00-4.875 4.875 4.88 4.88 0 004.875 4.876 4.88 4.88 0 004.875-4.876 4.88 4.88 0 00-4.875-4.875z"
        fill="currentColor" />
    <path opacity=".4" fill-rule="evenodd" clip-rule="evenodd"
        d="M11.428 14.52c-4.98 0-7.21 2.75-7.21 5.48a.75.75 0 00.75.75l5.81-.01 1.177-.002c.105-.003.206-.021.305-.053.425-.121.7-.47.7-.964v-4.184c0-.612-.444-1.018-1.532-1.018z"
        fill="currentColor" />
</svg>