<svg width="24px" height="24px" viewBox="0 0 24 24" fill="none" xmlns="http://www.w3.org/2000/svg">
    <path opacity="0.4" fill-rule="evenodd" clip-rule="evenodd"
          d="M16.217 2.5H7.783C4.623 2.5 2.5 4.721 2.5 8.026V15.974C2.5 19.279 4.623 21.5 7.783 21.5H16.216C19.376 21.5 21.5 19.279 21.5 15.974V8.026C21.5 4.721 19.377 2.5 16.217 2.5Z"
          fill="currentColor"/>
    <path fill-rule="evenodd" clip-rule="evenodd"
          d="M17.017 10.8159H12.707C12.293 10.8159 11.957 10.4799 11.957 10.0659C11.957 9.65188 12.293 9.31588 12.707 9.31588H17.017C17.431 9.31588 17.767 9.65188 17.767 10.0659C17.767 10.4799 17.431 10.8159 17.017 10.8159ZM17.017 16.0549H12.707C12.293 16.0549 11.957 15.7189 11.957 15.3049C11.957 14.8909 12.293 14.5549 12.707 14.5549H17.017C17.431 14.5549 17.767 14.8909 17.767 15.3049C17.767 15.7189 17.431 16.0549 17.017 16.0549ZM10.424 9.10787L8.821 10.7119C8.68 10.8519 8.489 10.9309 8.29 10.9309C8.091 10.9309 7.9 10.8519 7.76 10.7109L6.936 9.88688C6.644 9.59388 6.644 9.11887 6.937 8.82587C7.229 8.53387 7.705 8.53287 7.998 8.82687L8.291 9.11988L9.363 8.04788C9.656 7.75488 10.131 7.75488 10.424 8.04788C10.717 8.34088 10.717 8.81587 10.424 9.10787ZM10.424 14.3499L8.821 15.9529C8.674 16.0999 8.482 16.1729 8.29 16.1729C8.099 16.1729 7.907 16.0999 7.76 15.9529L6.937 15.1299C6.644 14.8379 6.644 14.3629 6.937 14.0699C7.23 13.7769 7.704 13.7769 7.997 14.0699L8.29 14.3619L9.363 13.2899C9.656 12.9969 10.131 12.9969 10.424 13.2899C10.717 13.5829 10.717 14.0569 10.424 14.3499Z"
          fill="currentColor"/>
</svg>