<svg viewBox="0 0 25 24" fill="none" xmlns="http://www.w3.org/2000/svg">
<path d="M5.73349 10.3673C5.16949 10.3673 4.60649 10.1503 4.18449 9.72627C3.33449 8.87327 3.33449 7.48227 4.18549 6.62927L4.36749 6.44727C5.54349 5.26427 6.65449 4.14727 8.35549 3.48427C10.8085 2.53127 13.0325 2.96927 15.3855 3.43427C15.7925 3.51427 16.0905 3.91627 16.0105 4.32227C15.9305 4.72827 15.5705 4.99827 15.1645 4.91927L15.1455 4.91553C12.8599 4.46618 10.9438 4.08947 8.89949 4.88327C7.49449 5.43027 6.53849 6.39127 5.43049 7.50527L5.24849 7.68827C4.97849 7.95927 4.97849 8.39827 5.24849 8.66927C5.49149 8.91427 5.86649 8.93927 6.14249 8.73227C6.36249 8.56627 6.58349 8.38627 6.80649 8.20127L6.80933 8.19895C7.78364 7.40052 8.88588 6.49724 10.3135 6.46227C10.5488 6.45663 10.7841 6.46515 11.0194 6.47368L11.0635 6.47527H11.9535C12.0105 6.47127 12.0675 6.46427 12.1235 6.45627C12.5295 6.40127 12.9135 6.67927 12.9735 7.09027C12.9765 7.11227 12.9795 7.13627 12.9805 7.15827C12.9825 7.18027 12.9835 7.20327 12.9835 7.22527C12.9835 7.63927 12.6475 7.97527 12.2335 7.97527H12.0115C11.6765 7.99827 11.3515 7.98727 11.0385 7.97527H10.9935C10.9625 7.97527 10.9335 7.97327 10.9045 7.97127C10.7195 7.96427 10.5355 7.95927 10.3495 7.96227C9.43964 7.98422 8.58852 8.68098 7.76334 9.35649L7.75749 9.36127L7.73769 9.37753C7.50445 9.56899 7.27403 9.75814 7.04549 9.93027C6.65649 10.2233 6.19449 10.3673 5.73349 10.3673Z" fill="currentColor" />
<path d="M6.60427 14.1406C6.31879 13.6956 5.82907 13.4258 5.2269 13.4258H4.2959C4.0199 13.4258 3.7959 13.6488 3.7959 13.9258V20.5018C3.7959 20.7778 4.0199 21.0018 4.2959 21.0018H5.2269C6.1989 21.0018 6.8779 20.2988 6.8779 19.2908V15.7684L7.23109 15.5289L7.23666 15.5251C8.3553 14.7617 9.32223 14.1018 10.6081 14.0719C11.6201 14.0329 12.6051 14.2519 13.5131 14.4799C13.9161 14.5839 14.3221 14.3369 14.4231 13.9349C14.5241 13.5329 14.2791 13.1259 13.8781 13.0249C12.9151 12.7839 11.7651 12.5359 10.5711 12.5719C8.9464 12.6104 7.74554 13.3659 6.60427 14.1406Z" fill="currentColor" />
<path d="M8.91388 20.5677C10.2419 20.8307 11.5289 21.0847 12.8399 21.0847C13.8509 21.0847 14.8749 20.9337 15.9429 20.5187C17.6441 19.8572 18.7539 18.7417 19.929 17.5606L19.9369 17.5527L20.1139 17.3737C20.9669 16.5197 20.9669 15.1297 20.1139 14.2757C19.3499 13.5087 18.1199 13.4217 17.2549 14.0717C17.0209 14.2487 16.7839 14.4427 16.5439 14.6397L16.5403 14.6426C15.7144 15.3197 14.8606 16.0197 13.9499 16.0407C13.7659 16.0467 13.5799 16.0397 13.3959 16.0317C13.3659 16.0287 13.3369 16.0267 13.3069 16.0267H13.2619C12.9459 16.0157 12.6219 16.0047 12.2879 16.0267H12.0669C11.6529 16.0267 11.3169 16.3627 11.3169 16.7767C11.3169 16.7897 11.3169 16.8037 11.3179 16.8157C11.3189 16.8487 11.3199 16.8807 11.3249 16.9127C11.3849 17.3227 11.7629 17.6017 12.1759 17.5467C12.2319 17.5387 12.2889 17.5317 12.3469 17.5267H13.2369C13.4859 17.5367 13.7399 17.5447 13.9859 17.5407C15.4145 17.5067 16.5192 16.6002 17.494 15.8004L17.4949 15.7997C17.7189 15.6157 17.9389 15.4357 18.1569 15.2707C18.4319 15.0637 18.8079 15.0877 19.0519 15.3357C19.3209 15.6057 19.3209 16.0437 19.0519 16.3137L18.8719 16.4947C17.7649 17.6097 16.8079 18.5727 15.3999 19.1197C13.352 19.9163 11.432 19.5371 9.13963 19.0844L9.13588 19.0837C8.72488 18.9997 8.36888 19.2727 8.28888 19.6807C8.20888 20.0867 8.50788 20.4877 8.91388 20.5677Z" fill="currentColor" />
<path d="M13.5117 11.437C12.4007 11.437 11.3717 11.219 10.4217 10.981C10.0207 10.88 9.77666 10.473 9.87666 10.071C9.97766 9.66905 10.3847 9.42505 10.7867 9.52604C11.6957 9.75305 12.6747 9.96504 13.6907 9.93404C14.9787 9.90405 15.9477 9.24304 17.0687 8.47705L17.4211 8.23746V4.71195C17.4211 3.70495 18.1001 3.00195 19.0731 3.00195H20.0031C20.2791 3.00195 20.5031 3.22595 20.5031 3.50195V10.078C20.5031 10.355 20.2791 10.578 20.0031 10.578H19.0731C18.471 10.578 17.9815 10.3087 17.6958 9.8646C16.5541 10.6403 15.353 11.3955 13.7277 11.434C13.6557 11.436 13.5837 11.437 13.5117 11.437Z" fill="currentColor" />
</svg>