<svg viewBox="0 0 25 24" fill="none" xmlns="http://www.w3.org/2000/svg"><path opacity=".4" fill-rule="evenodd" clip-rule="evenodd" d="M4.326 16.864c0 2.98 1.79 4.76 4.79 4.76h7.62c3 0 4.79-1.75 4.79-4.69v-5.71a.2.2 0 00-.2-.2h-16.8a.2.2 0 00-.2.2v5.64z" fill="currentColor"/><path fill-rule="evenodd" clip-rule="evenodd" d="M20.296 5.325c-.73-.72-1.76-1.13-2.98-1.24v-.96a.749.749 0 10-1.5 0v3.55c-.07.02-.13.04-.2.04-.42 0-.75-.34-.75-.75v-1.72a.2.2 0 00-.2-.2h-4.63v-.92a.749.749 0 10-1.5 0v3.55c-.06.02-.13.04-.2.04-.41 0-.75-.34-.75-.75V4.501a.193.193 0 00-.247-.189c-1.909.573-3.013 2.12-3.013 4.413v.6c0 .11.09.2.2.2h16.8a.2.2 0 00.2-.2v-.6c0-1.41-.42-2.59-1.23-3.4z" fill="currentColor"/></svg>