<svg viewBox="0 0 24 24" fill="none" xmlns="http://www.w3.org/2000/svg">
    <path
        d="M9.44 19.894v-2.765a1.283 1.283 0 011.282-1.276h2.598a1.282 1.282 0 011.29 1.276v2.77c0 .599.48 1.088 1.08 1.101h1.731a3.11 3.11 0 003.128-3.092v-7.854a2.195 2.195 0 00-.866-1.71l-5.921-4.727a2.862 2.862 0 00-3.55 0L4.315 8.348a2.18 2.18 0 00-.866 1.715v7.842A3.11 3.11 0 006.575 21H8.31a1.112 1.112 0 001.117-1.106"
        stroke="currentColor" fill="none" stroke-width="1.5" stroke-linecap="round" stroke-linejoin="round" />
</svg>