<svg width="24px" height="24px" viewBox="0 0 24 24" fill="none" xmlns="http://www.w3.org/2000/svg">
    <path opacity="0.4" fill-rule="evenodd" clip-rule="evenodd"
          d="M16.4 3.40039H7.6C4.7 3.40039 2.5 5.80039 2.5 8.90039V15.1004C2.5 16.7004 3.1 18.2004 4.1 19.2004C5 20.1004 6.2 20.6004 7.6 20.6004H16.4C17.7 20.6004 18.9 20.1004 19.9 19.2004C20.9 18.2004 21.5 16.7004 21.5 15.1004V8.90039C21.5 5.80039 19.3 3.40039 16.4 3.40039Z"
          fill="currentColor"/>
    <path fill-rule="evenodd" clip-rule="evenodd"
          d="M17.8 9.79998L13.8 13C13.3 13.4 12.7 13.6 12 13.6C11.4 13.6 10.8 13.4 10.2 13L6.19996 9.69998C5.89996 9.39998 5.79996 8.99998 6.09996 8.59998C6.39996 8.19998 6.79996 8.19998 7.19996 8.49998L11.2 11.7C11.7 12.1 12.4 12.1 12.8 11.7L16.8 8.49998C17.1 8.19998 17.6 8.29998 17.9 8.59998C18.2 8.99998 18.1 9.49998 17.8 9.79998Z"
          fill="currentColor"/>
</svg>