<svg viewBox="0 0 25 24" fill="none" xmlns="http://www.w3.org/2000/svg">
    <path opacity="0.4"
        d="M12.2722 15.4158C11.6838 15.4174 11.1108 15.2744 10.5812 15.0229L6.4262 12.9918C6.3952 12.9778 6.3662 12.9608 6.3392 12.9428L4.0512 11.8218C3.1162 11.3688 2.5332 10.4388 2.5332 9.39484C2.5322 8.35084 3.1142 7.41884 4.0532 6.96384L10.5862 3.76584C11.6582 3.23984 12.8892 3.23884 13.9632 3.76684L20.5052 6.96484C21.3938 7.40299 21.9623 8.26475 22.0186 9.2405C22.0285 9.29006 22.0336 9.34138 22.0332 9.39392L22.0002 14.8039C21.9972 15.2159 21.6622 15.5489 21.2502 15.5489H21.2452C20.8312 15.5459 20.4972 15.2079 20.5002 14.7939L20.5163 12.1516C20.5172 12.0025 20.3606 11.9048 20.2271 11.9711C18.147 13.0032 16.0512 14.005 13.9642 15.0228C13.4272 15.2848 12.8502 15.4158 12.2722 15.4158Z"
        fill="currentColor" />
    <path
        d="M12.2728 16.6668C13.0378 16.6668 13.8008 16.4938 14.5118 16.1458L17.8462 14.5201C17.9791 14.4553 18.1339 14.552 18.1339 14.6998V17.3086C18.1339 18.3726 17.5079 19.3226 16.5389 19.7296C15.1179 20.3286 13.6759 20.6286 12.2269 20.6286C10.7789 20.6286 9.32086 20.3286 7.86486 19.7316C6.88686 19.3236 6.25586 18.3656 6.25586 17.2886V14.6202C6.25586 14.4723 6.41077 14.3756 6.54364 14.4405L10.0328 16.1448C10.7281 16.4924 11.4933 16.6668 12.2728 16.6668Z"
        fill="currentColor" />
</svg>