<svg width="24px" height="24px" viewBox="0 0 24 25" fill="none"
     xmlns="http://www.w3.org/2000/svg">
    <path fill-rule="evenodd" clip-rule="evenodd"
          d="M10.6203 8.16363C10.7178 8.02849 10.9069 7.99881 11.0412 8.09752L16.0678 11.7922C16.2004 11.8897 16.2297 12.076 16.1334 12.2095L11.7474 18.2883C11.2174 19.0483 10.4374 19.6083 9.53738 19.8683L7.88215 20.3569C7.87899 20.3579 7.87571 20.3583 7.87241 20.3583C7.86908 20.3583 7.86576 20.3588 7.86257 20.3598L7.29738 20.5283C6.36738 20.7983 5.43738 20.0983 5.42738 19.1283V18.7497C5.42738 18.7355 5.42629 18.7213 5.42462 18.7072C5.41738 18.646 5.41738 18.5912 5.41738 18.5283L5.40738 16.7583C5.39738 15.8983 5.65738 15.0583 6.14738 14.3583L10.6203 8.16363Z"
          fill="currentColor" opacity="0.64"/>
    <path fill-rule="evenodd" clip-rule="evenodd"
          d="M18.1374 9.42836L17.3644 10.5025C17.2669 10.6379 17.078 10.668 16.9435 10.5692C15.7679 9.70614 12.7714 7.50813 11.9052 6.87281C11.7723 6.77528 11.7454 6.59052 11.842 6.45691L12.6074 5.39836C13.3674 4.34836 14.8474 4.11836 15.8874 4.87836L17.6274 6.14836C18.6774 6.90836 18.9074 8.37836 18.1374 9.42836Z"
          fill="currentColor"/>
</svg>