<svg viewBox="0 0 24 24" fill="none" xmlns="http://www.w3.org/2000/svg"><path fill-rule="evenodd" clip-rule="evenodd" d="M13.709 12.795l-.141.079c-.648.362-.877.548-.872.866a.751.751 0 01-.74.76h-.01a.75.75 0 01-.75-.74c-.017-1.268 1.02-1.848 1.639-2.194l.141-.08c.569-.313.853-.747.853-1.293a1.64 1.64 0 00-1.638-1.637 1.62 1.62 0 00-1.639 1.637.75.75 0 01-1.5 0 3.141 3.141 0 013.139-3.137 3.141 3.141 0 013.138 3.137c0 1.103-.576 2.027-1.62 2.602zm-1.762 4.165a.738.738 0 01-.75-.735v-.03a.75.75 0 011.5 0 .763.763 0 01-.75.765zM12 2.5c-5.239 0-9.5 4.262-9.5 9.5s4.261 9.5 9.5 9.5c5.238 0 9.5-4.262 9.5-9.5S17.238 2.5 12 2.5z" fill="currentColor"/></svg>